# xmcd CD database file
#
# Track frame offsets:
#	150
#	18207
#	34015
#	50933
#	70921
#	83734
#
# Disc length: 1367 seconds
#
# Revision: 0
# Processed by: cddbd v1.5.1PL2 Copyright (c) Steve Scherf et al.
# Submitted via: CDex 1.60beta1
#
DISCID=47055506
DTITLE=女の子プロジェクト - Horizon
DYEAR=2005
DGENRE=Game
TTITLE0=horizon
TTITLE1=瞳に未来
TTITLE2=echo
TTITLE3=交差点
TTITLE4=晩秋
TTITLE5=my dearest
EXTD=YEAR: 2005
EXTT0=
EXTT1=
EXTT2=
EXTT3=
EXTT4=
EXTT5=
PLAYORDER=
